<svg width="14" height="12" viewBox="0 0 14 12" fill="none" xmlns="http://www.w3.org/2000/svg">
<path d="M5.67409 8.3503C5.94268 8.6189 6.28962 8.7504 6.7149 8.7448C7.14017 8.73921 7.45353 8.58532 7.65498 8.28315L11.4153 2.64264L5.77481 6.40298C5.47264 6.60443 5.31316 6.9122 5.29637 7.32628C5.27959 7.74037 5.40549 8.08171 5.67409 8.3503ZM6.7149 0.628174C7.37519 0.628174 8.01031 0.720504 8.62025 0.905163C9.23018 1.08982 9.80375 1.36681 10.3409 1.73613L9.06511 2.54192C8.69579 2.35166 8.31248 2.20897 7.91518 2.11384C7.51788 2.01872 7.11779 1.97115 6.7149 1.97115C5.22643 1.97115 3.95899 2.49436 2.91259 3.54076C1.86618 4.58716 1.34298 5.8546 1.34298 7.34307C1.34298 7.81311 1.40733 8.27756 1.53603 8.73641C1.66473 9.19526 1.8466 9.62613 2.08162 10.029H11.3482C11.6056 9.60375 11.793 9.16169 11.9105 8.70284C12.0281 8.24398 12.0868 7.76835 12.0868 7.27592C12.0868 6.87303 12.0392 6.48132 11.9441 6.10081C11.849 5.7203 11.7063 5.35098 11.516 4.99286L12.3218 3.71703C12.6576 4.24303 12.9234 4.8026 13.1192 5.39575C13.3151 5.9889 13.4186 6.60443 13.4298 7.24235C13.441 7.88026 13.3682 8.4902 13.2116 9.07215C13.0549 9.65411 12.8254 10.2081 12.5233 10.7341C12.4002 10.9355 12.2323 11.0922 12.0197 11.2041C11.807 11.316 11.5832 11.372 11.3482 11.372H2.08162C1.8466 11.372 1.62277 11.316 1.41013 11.2041C1.19749 11.0922 1.02962 10.9355 0.906511 10.7341C0.615532 10.2305 0.391702 9.69608 0.235021 9.13091C0.0783404 8.56574 0 7.96979 0 7.34307C0 6.41418 0.176266 5.54404 0.528798 4.73265C0.88133 3.92127 1.36256 3.21061 1.9725 2.60067C2.58244 1.99074 3.29589 1.5095 4.11287 1.15697C4.92985 0.80444 5.79719 0.628174 6.7149 0.628174Z" fill="white" fill-opacity="0.8"/>
</svg>
