<svg width="51" height="47" viewBox="0 0 51 47" fill="none" xmlns="http://www.w3.org/2000/svg">
<path d="M37.0259 22.7196C37.5256 23.12 37.5256 23.8802 37.0259 24.2805L25.3753 33.6147C24.7206 34.1392 23.75 33.6731 23.75 32.8343V14.1659C23.75 13.327 24.7206 12.8609 25.3753 13.3854L37.0259 22.7196Z" fill="white"/>
<path d="M23.0259 22.7196C23.5256 23.12 23.5256 23.8802 23.0259 24.2805L11.3753 33.6147C10.7206 34.1392 9.75 33.6731 9.75 32.8343V14.1659C9.75 13.327 10.7206 12.8609 11.3753 13.3854L23.0259 22.7196Z" fill="white"/>
<rect x="42" y="34.3904" width="3" height="21.7805" rx="1" transform="rotate(180 42 34.3904)" fill="white"/>
</svg>
